<svg xmlns="http://www.w3.org/2000/svg" width="153" height="191"><g fill="none" fill-rule="evenodd" transform="translate(-3)"><path stroke="#515B75" stroke-linecap="round" stroke-width="2.451" d="M123.82 63.177c3.727 6.345 5.552 12.842 5.475 19.491" opacity=".993"/><path stroke="#515B75" stroke-width="2.451" d="M30.534 126.236c12.195 25.966 29.495 38.47 51.9 37.515 22.404-.956 39.803-10 52.198-27.131"/><path fill="#FFF" stroke="#515B75" stroke-linejoin="round" stroke-width="2.451" d="M9.722 121.537c2.695.993 7.23-.408 13.606-4.206 10.342-6.181 15.522-10.792 15.541-13.83-5.474-1.22-9.884-1.49-13.23-.808-5.019 1.021-15.914 9.83-16.579 10.14-.444.206-.223 3.108.662 8.704Z"/><path fill="#FFF" stroke="#515B75" stroke-width="2.451" d="M24.43 95.09c-1.567-3.814-2.685-6.419-3.353-7.813-1.002-2.092-5.847-3.207-4.695.782.768 2.66 1.914 5.688 3.437 9.083l4.61-2.051Zm-11.93 6.199c-1.566-3.815-2.684-6.42-3.352-7.814-1.002-2.092-5.848-3.207-4.695.782.768 2.66 1.913 5.688 3.436 9.083l4.611-2.051Z"/><path fill="#FFF" stroke="#515B75" stroke-width="2.451" d="M31.049 93.959c-4.602-.176-10.25 1.825-16.942 6.002-7.578 4.73-10.598 9.664-9.06 14.803l3.762 6.25a.231.231 0 0 0 .418-.044c1.978-5.811 5.945-10.439 11.9-13.883 9.177-5.306 14.567-4.5 16.814-4.241 1.394.16.011-2.343-4.149-7.51a3.703 3.703 0 0 0-2.743-1.377Z"/><path fill="#FFF" stroke="#515B75" stroke-linejoin="round" stroke-width="2.451" d="M39.818 122.2c-.638 3.957-9.349 10.81-13.87 8.482-2.952-1.52-6.4-5.406-10.343-11.659a.694.694 0 0 1 .026-.779c2.13-2.922 4.61-5.3 7.442-7.13 2.75-1.779 6.064-3.207 9.944-4.287a1.157 1.157 0 0 1 1.323.554c4.063 7.333 5.89 12.273 5.478 14.82Z"/><path stroke="#515B75" stroke-linecap="round" stroke-linejoin="round" stroke-width="2.474" d="m87.513 25.47 14.81 11.805"/><path stroke="#515B75" stroke-linecap="round" stroke-width="2.474" d="M57.638 105.376C46.86 100.019 42.089 91.807 43.324 80.74"/><path fill="#FFF" d="m110.885 69.889 10.775 12.645 9.915 48.22 3.762 10.352-.165 4.72-16.894-8.543z"/><path stroke="#515B75" stroke-linecap="round" stroke-width="4.759" d="m95.124 173.058-24.521 14.899a1.06 1.06 0 0 1-1.61-.906l-.001-3.491m1.748-17.945-25.358 2.723a.707.707 0 0 1-.782-.702v-3.224"/><path fill="#FFF" stroke="#515B75" stroke-linecap="round" stroke-linejoin="round" stroke-width="2.451" d="M100.802 174.312c-22.134-.974-38.398-7.33-41.307-26.71-2.91-19.38-.736-40.063.2-60.734.934-20.67-.744-42.252-2.524-55.468-1.78-13.216-6.273-21.767 4.131-27.13C71.707-1.093 79.697 1.356 83.33 6.862c3.632 5.505 6.44 21.474 9.14 30.476 2.7 9.001 3.941 15.305 7.742 15.438l22.706.793-11.146 12.668c4 5.736 6.859 9.295 8.575 10.675 1.717 1.38 9.226 1.382 22.529.003-7.922 8.956-11.882 15.882-11.881 20.778 0 4.897 1.641 19.16 4.922 42.786 1.898-3.427 5.172-4.645 9.822-3.654 6.974 1.487 10.234 5.347 8.239 15.914-1.995 10.567-11.933 10.903-18.058 9.6 0 0-12.984 12.947-35.118 11.973Z"/><path stroke="#515B75" stroke-linecap="round" stroke-width="2.474" d="m38.863 82.861 4.39 3.154 5.047-3.4m98.662 43.279-6.328 1.207 1.747 6.23"/><ellipse cx="107.297" cy="78.529" fill="#515B75" rx="3.59" ry="3.35" transform="rotate(2 107.297 78.53)"/><path fill="#515B75" stroke="#515B75" stroke-width=".5" d="m56.987 32.565 31.912-8.281c-1.653-11.345-4.8-18.135-9.44-20.371-6.961-3.354-17.415-.905-22.476 2.27-3.374 2.116-3.373 10.91.004 26.382Z"/><path stroke="#515B75" stroke-linecap="round" stroke-width="2.474" d="M123.158 119.475c4.742 1.3 8.265 2.518 10.57 3.655 2.304 1.137 6.579 3.767 12.824 7.889"/><path stroke="#515B75" stroke-width="2.451" d="M56.679 34.11c-9.09 3.326-12.764 9.627-11.025 18.903 2.61 13.913 42.56 31.078 73.53 42.735 20.648 7.771 25.95 20.183 15.904 37.234"/><path stroke="#515B75" stroke-width="2.474" d="M58.069 84.871c-4.84-.087-9.408 4.49-5.214 9.296 4.194 4.806 29.978 16.713 44.308 30.55 9.554 9.224 17.34 24.85 23.357 46.88"/><path stroke="#515B75" stroke-linecap="round" stroke-width="2.042" d="m100.929 43.549.242 3.984m3.977-5.017 2.433 3.361m.16-6.977 3.815 1.564"/><path stroke="#515B75" stroke-width="2.451" d="M136.038 139.641c-14.313-3.346-28.451-4.17-42.416-2.474-13.964 1.698-25.583-.009-34.855-5.12-5.51-3.306-8.01-7.175-7.495-11.606.514-4.43 2.557-6.646 6.127-6.646" opacity=".993"/><path stroke="#525C76" stroke-width="2.451" d="M139.337 162.79c-9.108 11.414-22.041 10.054-38.8-4.082-16.76-14.136-29.4-13.73-37.92 1.217"/></g></svg>